<svg width="40" height="40" viewBox="0 0 40 40" fill="none" xmlns="http://www.w3.org/2000/svg">
<rect width="40" height="40" rx="20" fill="#070F2B"/>
<path d="M16.47 26.495C16.33 26.575 16.19 26.615 16.05 26.615C15.91 26.615 15.775 26.58 15.645 26.51C15.525 26.44 15.43 26.34 15.36 26.21C15.36 26.2 15.245 25.995 15.015 25.595C14.195 25.965 13.255 26.15 12.195 26.15C11.055 26.15 10.07 25.92 9.24 25.46C8.41 25 7.775 24.365 7.335 23.555C6.905 22.735 6.69 21.8 6.69 20.75C6.69 19.69 6.91 18.755 7.35 17.945C7.79 17.125 8.43 16.49 9.27 16.04C10.12 15.58 11.13 15.35 12.3 15.35C13.47 15.35 14.475 15.58 15.315 16.04C16.165 16.49 16.81 17.125 17.25 17.945C17.69 18.755 17.91 19.69 17.91 20.75C17.91 21.55 17.78 22.285 17.52 22.955C17.26 23.625 16.885 24.195 16.395 24.665C16.445 24.755 16.485 24.83 16.515 24.89C16.555 24.94 16.585 24.985 16.605 25.025C16.695 25.165 16.75 25.255 16.77 25.295C16.87 25.495 16.92 25.67 16.92 25.82C16.92 26.1 16.77 26.325 16.47 26.495ZM9.27 23.06C9.69 22.66 10.16 22.35 10.68 22.13C11.2 21.9 11.725 21.785 12.255 21.785C12.835 21.785 13.39 21.9 13.92 22.13C14.46 22.36 14.92 22.685 15.3 23.105C15.7 22.455 15.9 21.67 15.9 20.75C15.9 19.56 15.57 18.625 14.91 17.945C14.26 17.265 13.34 16.925 12.15 16.925C11.06 16.925 10.21 17.275 9.6 17.975C9 18.665 8.7 19.59 8.7 20.75C8.7 21.67 8.89 22.44 9.27 23.06ZM12.3 24.575C12.99 24.575 13.585 24.445 14.085 24.185C13.865 23.905 13.595 23.69 13.275 23.54C12.965 23.38 12.635 23.3 12.285 23.3C11.925 23.3 11.585 23.375 11.265 23.525C10.945 23.675 10.675 23.885 10.455 24.155C10.985 24.435 11.6 24.575 12.3 24.575ZM24.6179 26C23.8579 26 23.2679 25.8 22.8479 25.4C22.4279 25 22.2179 24.44 22.2179 23.72V17.72C22.2179 17.02 22.4179 16.475 22.8179 16.085C23.2279 15.695 23.7929 15.5 24.5129 15.5H27.9779C29.1379 15.5 30.0329 15.745 30.6629 16.235C31.2929 16.725 31.6079 17.435 31.6079 18.365C31.6079 18.825 31.4729 19.255 31.2029 19.655C30.9329 20.045 30.5829 20.34 30.1529 20.54V20.555C30.6329 20.745 31.0229 21.05 31.3229 21.47C31.6329 21.88 31.7879 22.325 31.7879 22.805C31.7879 23.805 31.4629 24.59 30.8129 25.16C30.1729 25.72 29.2879 26 28.1579 26H24.6179ZM27.9779 19.835C28.4879 19.835 28.8829 19.71 29.1629 19.46C29.4529 19.21 29.5979 18.85 29.5979 18.38C29.5979 17.92 29.4629 17.58 29.1929 17.36C28.9229 17.14 28.5179 17.03 27.9779 17.03H24.8279C24.6279 17.03 24.4679 17.095 24.3479 17.225C24.2379 17.355 24.1829 17.535 24.1829 17.765V19.835H27.9779ZM27.9779 24.47C29.1779 24.47 29.7779 23.925 29.7779 22.835C29.7779 22.365 29.6179 22 29.2979 21.74C28.9879 21.48 28.5479 21.35 27.9779 21.35H24.1829V23.735C24.1829 23.965 24.2379 24.145 24.3479 24.275C24.4679 24.405 24.6279 24.47 24.8279 24.47H27.9779Z" fill="#03C988"/>
</svg>
